<?xml version="1.0" encoding="UTF-8" standalone="no"?>
<!-- Created with Inkscape (http://www.inkscape.org/) -->

<svg
   xmlns:dc="http://purl.org/dc/elements/1.1/"
   xmlns:cc="http://creativecommons.org/ns#"
   xmlns:rdf="http://www.w3.org/1999/02/22-rdf-syntax-ns#"
   xmlns:svg="http://www.w3.org/2000/svg"
   xmlns="http://www.w3.org/2000/svg"
   xmlns:sodipodi="http://sodipodi.sourceforge.net/DTD/sodipodi-0.dtd"
   xmlns:inkscape="http://www.inkscape.org/namespaces/inkscape"
   width="1920mm"
   height="1080mm"
   viewBox="0 0 1920 1080"
   version="1.1"
   id="svg8"
   inkscape:version="0.92.1 r15371"
   sodipodi:docname="empty-image.svg">
  <defs
     id="defs2" />
  <sodipodi:namedview
     id="base"
     pagecolor="#ffffff"
     bordercolor="#666666"
     borderopacity="1.0"
     inkscape:pageopacity="0.0"
     inkscape:pageshadow="2"
     inkscape:zoom="0.0875"
     inkscape:cx="-833.00846"
     inkscape:cy="1415.9068"
     inkscape:document-units="mm"
     inkscape:current-layer="layer1"
     showgrid="false"
     inkscape:window-width="1920"
     inkscape:window-height="1020"
     inkscape:window-x="1366"
     inkscape:window-y="23"
     inkscape:window-maximized="1" />
  <metadata
     id="metadata5">
    <rdf:RDF>
      <cc:Work
         rdf:about="">
        <dc:format>image/svg+xml</dc:format>
        <dc:type
           rdf:resource="http://purl.org/dc/dcmitype/StillImage" />
        <dc:title />
      </cc:Work>
    </rdf:RDF>
  </metadata>
  <g
     inkscape:label="Layer 1"
     inkscape:groupmode="layer"
     id="layer1"
     transform="translate(0,783)">
    <rect
       style="opacity:1;fill:#cccccc;fill-opacity:1;fill-rule:nonzero;stroke:#ffffff;stroke-width:13.49265003;stroke-linecap:square;stroke-linejoin:miter;stroke-miterlimit:4;stroke-dasharray:none;stroke-dashoffset:0;stroke-opacity:0.92941176;paint-order:normal"
       id="rect4485"
       width="1906.5073"
       height="1066.5073"
       x="6.746325"
       y="-776.25366"
       ry="0.67985213" />
    <path
       id="path4613"
       d="m 1030.4723,-456.23022 c 53.3077,0 95.9539,42.64628 95.9539,95.95394 0,18.76398 -5.327,36.46255 -14.7134,51.17522 l 65.6751,66.10146 -29.6389,29.63892 -66.5278,-65.46157 c -14.7127,9.16883 -32.1977,14.49911 -50.7489,14.49911 -53.30766,0 -95.95314,-42.64548 -95.95314,-95.95314 0,-53.30766 42.64548,-95.95394 95.95314,-95.95394 m 0,42.64628 a 53.30752,53.30752 0 0 0 -53.30766,53.30766 53.30752,53.30752 0 0 0 53.30766,53.30766 53.30752,53.30752 0 0 0 53.3077,-53.30766 53.30752,53.30752 0 0 0 -53.3077,-53.30766 m -170.58434,223.892 -74.6304,95.953133 H 1083.78 l -95.95399,-127.938053 -74.63039,95.95394 -53.30766,-63.96902 M 1126.4262,-72.416067 A 42.646017,42.646017 0 0 1 1083.78,-29.769783 H 785.25756 A 42.646017,42.646017 0 0 1 742.61208,-72.416067 V -370.93765 a 42.646017,42.646017 0 0 1 42.64548,-42.64629 h 117.27668 c -6.82604,16.41879 -10.66136,34.33012 -10.66136,53.30766 a 138.59955,138.59955 0 0 0 138.59942,138.59942 c 14.4999,0 28.5727,-2.34519 41.7928,-6.39892 l 54.1611,54.16031 z"
       inkscape:connector-curvature="0"
       style="fill:#ffffff;stroke-width:21.32300758" />
  </g>
</svg>
